# xmcd
#
# Track frame offsets:
#	150
#	24907
#	42848
#	62996
#	79578
#	94733
#	109982
#	134739
#	152680
#	172828
#	189410
#	204565
#
# Disc length: 2932 seconds
#
# Revision: 1
# Processed by: cddbd v1.5.2PL0 Copyright (c) Steve Scherf et al.
# Submitted via: audiograbber 1.83.01
#
DISCID=9a0b720c
DTITLE=Southern Gospel Hits Vol. 6 - Southern Gospel Hits Vol. 6
DYEAR=2005
DGENRE=Karaoke
TTITLE0=Daystar
TTITLE1=I Can Pray
TTITLE2=Orphans Of God
TTITLE3=Singin With The Saints
TTITLE4=Testify
TTITLE5=You're Still God
TTITLE6=Daystar - (Vocal)
TTITLE7=I Can Pray - (Vocal)
TTITLE8=Orphans Of God - (Vocal)
TTITLE9=Singin With The Saints - (Vocal)
TTITLE10=Testify - (Vocal)
TTITLE11=You're Still God - (Vocal)
EXTD=
EXTT0=
EXTT1=
EXTT2=
EXTT3=
EXTT4=
EXTT5=
EXTT6=
EXTT7=
EXTT8=
EXTT9=
EXTT10=
EXTT11=
PLAYORDER=
